<?xml version="1.0" standalone="no"?>
<!DOCTYPE svg PUBLIC "-//W3C//DTD SVG 20010904//EN"
 "http://www.w3.org/TR/2001/REC-SVG-20010904/DTD/svg10.dtd">
<svg version="1.0" xmlns="http://www.w3.org/2000/svg"
 width="260.000000pt" height="260.000000pt" viewBox="0 0 260.000000 260.000000"
 preserveAspectRatio="xMidYMid meet">
<metadata>
Created by potrace 1.14, written by Peter Selinger 2001-2017
</metadata>
<g transform="translate(0.000000,260.000000) scale(0.100000,-0.100000)"
fill="#000000" stroke="none">
<path d="M1297 2004 c-1 -1 -27 -4 -57 -7 -100 -10 -228 -58 -307 -116 -59
-43 -93 -73 -93 -83 0 -17 67 -8 85 12 17 19 19 19 31 2 12 -16 17 -15 72 16
112 61 177 77 313 76 110 0 202 -25 280 -75 51 -34 62 -37 79 -27 16 10 24 10
40 0 26 -16 81 -16 74 1 -3 6 -26 28 -52 47 -26 19 -49 38 -52 41 -13 16 -162
81 -216 94 -49 12 -189 26 -197 19z"/>
<path d="M1155 1822 c-8 -21 2 -29 37 -30 21 0 39 -9 51 -23 17 -22 18 -57 1
-143 -2 -11 -6 -38 -10 -61 -3 -22 -10 -61 -14 -87 -5 -26 -12 -69 -16 -95 -3
-26 -9 -51 -13 -56 -4 -4 -31 50 -61 120 -29 71 -60 144 -68 163 -9 19 -17 41
-18 48 -3 17 35 42 66 42 18 0 26 6 27 20 2 19 -4 20 -189 17 -208 -2 -237
-11 -156 -46 24 -10 48 -25 54 -32 12 -15 38 -73 124 -279 121 -289 213 -508
230 -545 11 -22 23 -51 28 -65 8 -20 17 -26 38 -25 31 0 43 18 103 155 14 30
42 92 63 136 21 45 38 85 38 88 0 3 -11 6 -25 6 -22 0 -31 -11 -66 -86 -22
-48 -41 -85 -43 -83 -2 2 -16 33 -31 69 -15 36 -35 82 -45 104 -13 28 -15 48
-9 75 16 76 20 140 9 160 -13 25 -16 132 -5 181 11 53 41 104 75 133 16 14 30
35 30 46 0 25 33 61 58 62 9 1 28 2 41 2 17 2 25 8 26 22 1 20 -4 20 -162 20
-127 0 -164 -3 -168 -13z"/>
<path d="M1505 1742 c-37 -7 -37 -19 2 -27 63 -11 141 -54 171 -92 22 -30 27
-47 27 -96 0 -64 12 -79 39 -52 13 14 22 57 17 88 -1 4 -4 35 -7 69 -9 87 -18
108 -49 108 -22 0 -24 -2 -15 -25 9 -25 -2 -36 -15 -15 -17 27 -120 52 -170
42z"/>
<path d="M1390 1663 c-19 -8 -47 -40 -68 -78 -12 -21 -17 -55 -17 -115 0 -76
3 -90 29 -134 16 -27 46 -65 68 -85 151 -138 163 -154 172 -219 11 -86 -52
-171 -139 -186 -45 -8 -75 -62 -34 -61 88 3 175 34 233 85 57 50 79 102 80
185 1 101 -24 144 -160 272 -123 117 -141 141 -147 199 -5 48 6 80 41 117 l26
27 -35 -1 c-19 0 -41 -3 -49 -6z m-10 -234 c7 -16 47 -62 88 -102 175 -168
196 -197 195 -282 0 -27 -7 -66 -15 -85 l-16 -35 1 70 c1 101 -22 143 -143
257 -55 51 -100 99 -100 106 0 6 -4 12 -9 12 -5 0 -11 12 -14 28 -3 15 -9 35
-12 45 -12 31 12 18 25 -14z"/>
<path d="M1860 1591 c0 -2 12 -33 26 -69 14 -35 27 -74 30 -86 2 -11 6 -33 10
-48 3 -16 2 -28 -3 -29 -4 -1 -38 -2 -75 -3 -71 -1 -84 -6 -75 -31 5 -12 28
-15 128 -15 l121 0 -6 63 c-9 79 -25 144 -46 182 -14 25 -25 31 -63 35 -26 3
-47 4 -47 1z"/>
<path d="M697 1578 c-19 -15 -54 -138 -62 -215 l-5 -53 119 0 c95 0 120 3 124
15 9 21 -9 28 -81 31 -35 1 -66 4 -68 7 -9 9 19 114 45 170 l27 57 -41 0 c-23
0 -49 -6 -58 -12z"/>
<path d="M1504 1555 c-24 -24 -24 -26 -9 -55 12 -23 22 -30 44 -30 51 0 72 50
36 86 -30 30 -40 30 -71 -1z"/>
<path d="M634 1259 c-4 -7 -3 -20 11 -96 10 -58 14 -70 39 -133 119 -294 429
-469 750 -425 130 18 275 94 382 200 85 84 131 155 165 252 20 58 25 80 35
163 l6 45 -114 -1 c-144 -2 -138 -1 -138 -18 0 -23 18 -29 91 -29 l69 0 -6
-31 c-32 -188 -153 -350 -324 -435 -85 -41 -98 -45 -220 -59 -88 -10 -192 4
-279 37 -53 20 -155 84 -186 117 -69 74 -89 100 -120 157 -33 60 -58 129 -69
188 -4 25 -4 25 66 26 73 1 102 13 80 35 -13 13 -230 19 -238 7z"/>
<path d="M915 1106 c-31 -47 13 -146 96 -216 55 -45 115 -78 125 -67 11 11
-35 83 -65 100 -43 25 -70 81 -64 133 3 30 0 46 -12 58 -24 24 -62 20 -80 -8z"/>
</g>
</svg>
